<svg width="210" height="40" viewBox="0 0 210 40" fill="none" xmlns="http://www.w3.org/2000/svg">
<rect width="210" height="40" rx="20" fill="#14C3A2"/>
<path d="M34.4688 29H31.3926V11.2266H34.4688V29ZM40.731 15.792L40.8164 17.3179C41.793 16.1379 43.0747 15.5479 44.6616 15.5479C47.4123 15.5479 48.812 17.1226 48.8608 20.272V29H45.8945V20.4429C45.8945 19.6047 45.7114 18.9862 45.3452 18.5874C44.9871 18.1805 44.3971 17.9771 43.5752 17.9771C42.3789 17.9771 41.4878 18.5182 40.9019 19.6006V29H37.9355V15.792H40.731ZM55.0498 29H52.0835V15.792H55.0498V29ZM51.9004 12.3618C51.9004 11.9061 52.0428 11.5277 52.3276 11.2266C52.6206 10.9255 53.0356 10.7749 53.5728 10.7749C54.1099 10.7749 54.5249 10.9255 54.8179 11.2266C55.1108 11.5277 55.2573 11.9061 55.2573 12.3618C55.2573 12.8094 55.1108 13.1838 54.8179 13.4849C54.5249 13.7778 54.1099 13.9243 53.5728 13.9243C53.0356 13.9243 52.6206 13.7778 52.3276 13.4849C52.0428 13.1838 51.9004 12.8094 51.9004 12.3618ZM63.7168 26.876C64.4574 26.876 65.0718 26.6603 65.5601 26.229C66.0483 25.7977 66.3088 25.2646 66.3413 24.6299H69.1367C69.1042 25.4518 68.8478 26.2209 68.3677 26.937C67.8875 27.645 67.2365 28.2065 66.4146 28.6216C65.5926 29.0366 64.7056 29.2441 63.7534 29.2441C61.9061 29.2441 60.4412 28.646 59.3589 27.4497C58.2765 26.2534 57.7354 24.6014 57.7354 22.4937V22.1885C57.7354 20.1784 58.2725 18.5711 59.3467 17.3667C60.4209 16.1541 61.8857 15.5479 63.7412 15.5479C65.3118 15.5479 66.5895 16.0076 67.5742 16.9272C68.5671 17.8387 69.0879 19.0391 69.1367 20.5283H66.3413C66.3088 19.7715 66.0483 19.1489 65.5601 18.6606C65.0799 18.1724 64.4655 17.9282 63.7168 17.9282C62.7565 17.9282 62.016 18.2782 61.4951 18.978C60.9743 19.6698 60.7098 20.7236 60.7017 22.1396V22.6157C60.7017 24.048 60.958 25.1182 61.4707 25.8262C61.9915 26.526 62.7402 26.876 63.7168 26.876ZM74.5322 29H71.5659V15.792H74.5322V29ZM71.3828 12.3618C71.3828 11.9061 71.5252 11.5277 71.8101 11.2266C72.103 10.9255 72.5181 10.7749 73.0552 10.7749C73.5923 10.7749 74.0073 10.9255 74.3003 11.2266C74.5933 11.5277 74.7397 11.9061 74.7397 12.3618C74.7397 12.8094 74.5933 13.1838 74.3003 13.4849C74.0073 13.7778 73.5923 13.9243 73.0552 13.9243C72.5181 13.9243 72.103 13.7778 71.8101 13.4849C71.5252 13.1838 71.3828 12.8094 71.3828 12.3618ZM85.665 29C85.5348 28.7477 85.4209 28.3368 85.3232 27.7671C84.3792 28.7518 83.2236 29.2441 81.8564 29.2441C80.5299 29.2441 79.4476 28.8657 78.6094 28.1089C77.7712 27.3521 77.3521 26.4162 77.3521 25.3013C77.3521 23.8934 77.8729 22.8151 78.9146 22.0664C79.9644 21.3096 81.4618 20.9312 83.4067 20.9312H85.2256V20.0645C85.2256 19.3809 85.0343 18.8356 84.6519 18.4287C84.2694 18.0137 83.6875 17.8062 82.9062 17.8062C82.2308 17.8062 81.6774 17.9771 81.2461 18.3188C80.8148 18.6525 80.5991 19.0798 80.5991 19.6006H77.6328C77.6328 18.8763 77.8729 18.2008 78.353 17.5742C78.8332 16.9395 79.4842 16.443 80.3062 16.085C81.1362 15.7269 82.0599 15.5479 83.0771 15.5479C84.6234 15.5479 85.8563 15.9385 86.7759 16.7197C87.6955 17.4928 88.1675 18.5833 88.1919 19.9912V25.9482C88.1919 27.1364 88.3587 28.0845 88.6924 28.7925V29H85.665ZM82.4058 26.8638C82.9917 26.8638 83.541 26.7214 84.0537 26.4365C84.5745 26.1517 84.9652 25.7692 85.2256 25.2891V22.7988H83.6265C82.5278 22.7988 81.7018 22.9901 81.1484 23.3726C80.5951 23.755 80.3184 24.2962 80.3184 24.9961C80.3184 25.5658 80.5055 26.0215 80.8799 26.3633C81.2624 26.6969 81.771 26.8638 82.4058 26.8638ZM98.2139 18.502C97.8232 18.4368 97.4204 18.4043 97.0054 18.4043C95.6463 18.4043 94.7308 18.9251 94.2588 19.9668V29H91.2925V15.792H94.1245L94.1978 17.269C94.9139 16.1216 95.9067 15.5479 97.1763 15.5479C97.5994 15.5479 97.9494 15.6048 98.2261 15.7188L98.2139 18.502ZM113.717 25.4111C113.717 24.8822 113.497 24.4793 113.058 24.2026C112.626 23.9259 111.906 23.6818 110.897 23.4702C109.888 23.2586 109.046 22.9901 108.37 22.6646C106.889 21.9484 106.148 20.9108 106.148 19.5518C106.148 18.4124 106.629 17.4603 107.589 16.6953C108.549 15.9303 109.77 15.5479 111.251 15.5479C112.83 15.5479 114.103 15.9385 115.072 16.7197C116.048 17.501 116.537 18.5142 116.537 19.7593H113.57C113.57 19.1896 113.359 18.7176 112.936 18.3433C112.512 17.9608 111.951 17.7695 111.251 17.7695C110.6 17.7695 110.067 17.9201 109.652 18.2212C109.245 18.5223 109.042 18.9251 109.042 19.4297C109.042 19.8854 109.233 20.2394 109.615 20.4917C109.998 20.744 110.771 21.0003 111.935 21.2607C113.098 21.513 114.01 21.8182 114.669 22.1763C115.336 22.5262 115.829 22.9494 116.146 23.4458C116.472 23.9422 116.634 24.5444 116.634 25.2524C116.634 26.4406 116.142 27.4049 115.157 28.1455C114.173 28.8779 112.883 29.2441 111.288 29.2441C110.205 29.2441 109.241 29.0488 108.395 28.6582C107.548 28.2676 106.889 27.7305 106.417 27.0469C105.945 26.3633 105.709 25.6268 105.709 24.8374H108.59C108.631 25.5373 108.895 26.0785 109.383 26.4609C109.872 26.8353 110.519 27.0225 111.324 27.0225C112.105 27.0225 112.7 26.876 113.106 26.583C113.513 26.2819 113.717 25.8913 113.717 25.4111ZM125.045 29.2441C123.165 29.2441 121.639 28.6541 120.467 27.4741C119.304 26.286 118.722 24.7072 118.722 22.7378V22.3716C118.722 21.0532 118.974 19.8773 119.479 18.8438C119.991 17.8021 120.707 16.9924 121.627 16.4146C122.547 15.8368 123.572 15.5479 124.703 15.5479C126.502 15.5479 127.889 16.1216 128.866 17.269C129.85 18.4165 130.343 20.04 130.343 22.1396V23.3359H121.712C121.802 24.4264 122.164 25.2891 122.799 25.9238C123.442 26.5586 124.247 26.876 125.216 26.876C126.575 26.876 127.682 26.3267 128.536 25.228L130.135 26.7539C129.606 27.5433 128.898 28.1577 128.011 28.5972C127.132 29.0285 126.144 29.2441 125.045 29.2441ZM124.691 17.9282C123.877 17.9282 123.218 18.2131 122.713 18.7827C122.217 19.3524 121.9 20.1458 121.761 21.1631H127.413V20.9434C127.348 19.9505 127.083 19.2018 126.62 18.6973C126.156 18.1846 125.513 17.9282 124.691 17.9282ZM140.06 25.4111C140.06 24.8822 139.84 24.4793 139.4 24.2026C138.969 23.9259 138.249 23.6818 137.24 23.4702C136.231 23.2586 135.388 22.9901 134.713 22.6646C133.232 21.9484 132.491 20.9108 132.491 19.5518C132.491 18.4124 132.971 17.4603 133.932 16.6953C134.892 15.9303 136.113 15.5479 137.594 15.5479C139.173 15.5479 140.446 15.9385 141.415 16.7197C142.391 17.501 142.879 18.5142 142.879 19.7593H139.913C139.913 19.1896 139.701 18.7176 139.278 18.3433C138.855 17.9608 138.294 17.7695 137.594 17.7695C136.943 17.7695 136.41 17.9201 135.995 18.2212C135.588 18.5223 135.384 18.9251 135.384 19.4297C135.384 19.8854 135.576 20.2394 135.958 20.4917C136.34 20.744 137.114 21.0003 138.277 21.2607C139.441 21.513 140.353 21.8182 141.012 22.1763C141.679 22.5262 142.171 22.9494 142.489 23.4458C142.814 23.9422 142.977 24.5444 142.977 25.2524C142.977 26.4406 142.485 27.4049 141.5 28.1455C140.515 28.8779 139.225 29.2441 137.63 29.2441C136.548 29.2441 135.584 29.0488 134.737 28.6582C133.891 28.2676 133.232 27.7305 132.76 27.0469C132.288 26.3633 132.052 25.6268 132.052 24.8374H134.933C134.973 25.5373 135.238 26.0785 135.726 26.4609C136.214 26.8353 136.861 27.0225 137.667 27.0225C138.448 27.0225 139.042 26.876 139.449 26.583C139.856 26.2819 140.06 25.8913 140.06 25.4111ZM148.727 29H145.76V15.792H148.727V29ZM145.577 12.3618C145.577 11.9061 145.72 11.5277 146.004 11.2266C146.297 10.9255 146.712 10.7749 147.25 10.7749C147.787 10.7749 148.202 10.9255 148.495 11.2266C148.788 11.5277 148.934 11.9061 148.934 12.3618C148.934 12.8094 148.788 13.1838 148.495 13.4849C148.202 13.7778 147.787 13.9243 147.25 13.9243C146.712 13.9243 146.297 13.7778 146.004 13.4849C145.72 13.1838 145.577 12.8094 145.577 12.3618ZM151.412 22.2739C151.412 20.98 151.668 19.8162 152.181 18.7827C152.694 17.741 153.414 16.9435 154.342 16.3901C155.27 15.8286 156.336 15.5479 157.54 15.5479C159.322 15.5479 160.767 16.1216 161.874 17.269C162.988 18.4165 163.591 19.9383 163.68 21.8345L163.692 22.5303C163.692 23.8324 163.44 24.9961 162.936 26.0215C162.439 27.0469 161.723 27.8403 160.787 28.4019C159.859 28.9634 158.785 29.2441 157.564 29.2441C155.701 29.2441 154.208 28.6257 153.084 27.3887C151.97 26.1436 151.412 24.4875 151.412 22.4204V22.2739ZM154.378 22.5303C154.378 23.8893 154.659 24.9554 155.221 25.7285C155.782 26.4935 156.563 26.876 157.564 26.876C158.565 26.876 159.343 26.4854 159.896 25.7041C160.458 24.9229 160.738 23.7795 160.738 22.2739C160.738 20.9393 160.449 19.8813 159.872 19.1001C159.302 18.3188 158.525 17.9282 157.54 17.9282C156.572 17.9282 155.803 18.3148 155.233 19.0879C154.663 19.8529 154.378 21.0003 154.378 22.5303ZM158.358 10.25H161.739L158.358 13.9487H155.978L158.358 10.25ZM168.954 15.792L169.039 17.3179C170.016 16.1379 171.297 15.5479 172.884 15.5479C175.635 15.5479 177.035 17.1226 177.083 20.272V29H174.117V20.4429C174.117 19.6047 173.934 18.9862 173.568 18.5874C173.21 18.1805 172.62 17.9771 171.798 17.9771C170.602 17.9771 169.71 18.5182 169.125 19.6006V29H166.158V15.792H168.954Z" fill="white"/>
</svg>
