<svg width="210" height="40" viewBox="0 0 210 40" fill="none" xmlns="http://www.w3.org/2000/svg">
<rect width="210" height="40" rx="20" fill="#14C3A2"/>
<path d="M44.4536 22.1519H41.0112V29H37.9229V11.2266H44.1729C46.2236 11.2266 47.8065 11.6864 48.9214 12.606C50.0363 13.5256 50.5938 14.8561 50.5938 16.5977C50.5938 17.7858 50.3049 18.7827 49.7271 19.5884C49.1574 20.3859 48.3599 21.0003 47.3345 21.4316L51.3262 28.8413V29H48.0181L44.4536 22.1519ZM41.0112 19.6738H44.1851C45.2267 19.6738 46.0405 19.4134 46.6265 18.8926C47.2124 18.3636 47.5054 17.6434 47.5054 16.7319C47.5054 15.7798 47.2327 15.0433 46.6875 14.5225C46.1504 14.0016 45.3447 13.7331 44.2705 13.7168H41.0112V19.6738ZM59.0532 29.2441C57.1733 29.2441 55.6475 28.6541 54.4756 27.4741C53.3118 26.286 52.73 24.7072 52.73 22.7378V22.3716C52.73 21.0532 52.9823 19.8773 53.4868 18.8438C53.9995 17.8021 54.7157 16.9924 55.6353 16.4146C56.5549 15.8368 57.5802 15.5479 58.7114 15.5479C60.5099 15.5479 61.8975 16.1216 62.874 17.269C63.8587 18.4165 64.3511 20.04 64.3511 22.1396V23.3359H55.7207C55.8102 24.4264 56.1724 25.2891 56.8071 25.9238C57.45 26.5586 58.2557 26.876 59.2241 26.876C60.5832 26.876 61.6899 26.3267 62.5444 25.228L64.1436 26.7539C63.6146 27.5433 62.9066 28.1577 62.0195 28.5972C61.1406 29.0285 60.1519 29.2441 59.0532 29.2441ZM58.6992 17.9282C57.8854 17.9282 57.2262 18.2131 56.7217 18.7827C56.2253 19.3524 55.9079 20.1458 55.7695 21.1631H61.4214V20.9434C61.3563 19.9505 61.0918 19.2018 60.6279 18.6973C60.1641 18.1846 59.5212 17.9282 58.6992 17.9282ZM66.1455 22.2983C66.1455 20.2476 66.6257 18.6118 67.5859 17.3911C68.5544 16.1623 69.8361 15.5479 71.4312 15.5479C72.9367 15.5479 74.1208 16.0728 74.9834 17.1226L75.1177 15.792H77.791V28.5972C77.791 30.3306 77.2498 31.6978 76.1675 32.6987C75.0933 33.6997 73.6406 34.2002 71.8096 34.2002C70.8411 34.2002 69.8931 33.9967 68.9653 33.5898C68.0457 33.1911 67.3459 32.6662 66.8657 32.0151L68.2695 30.2329C69.181 31.3153 70.304 31.8564 71.6387 31.8564C72.6234 31.8564 73.4006 31.5879 73.9702 31.0508C74.5399 30.5218 74.8247 29.7406 74.8247 28.707V27.8159C73.9702 28.7681 72.8309 29.2441 71.4067 29.2441C69.8605 29.2441 68.5951 28.6297 67.6104 27.4009C66.6338 26.172 66.1455 24.4712 66.1455 22.2983ZM69.0996 22.5547C69.0996 23.8812 69.3682 24.9269 69.9053 25.6919C70.4505 26.4487 71.2033 26.8271 72.1636 26.8271C73.3599 26.8271 74.2469 26.3145 74.8247 25.2891V19.4785C74.2632 18.4775 73.3843 17.9771 72.188 17.9771C71.2114 17.9771 70.4505 18.3636 69.9053 19.1367C69.3682 19.9098 69.0996 21.0492 69.0996 22.5547ZM84.0044 29H81.0381V15.792H84.0044V29ZM80.855 12.3618C80.855 11.9061 80.9974 11.5277 81.2822 11.2266C81.5752 10.9255 81.9902 10.7749 82.5273 10.7749C83.0645 10.7749 83.4795 10.9255 83.7725 11.2266C84.0654 11.5277 84.2119 11.9061 84.2119 12.3618C84.2119 12.8094 84.0654 13.1838 83.7725 13.4849C83.4795 13.7778 83.0645 13.9243 82.5273 13.9243C81.9902 13.9243 81.5752 13.7778 81.2822 13.4849C80.9974 13.1838 80.855 12.8094 80.855 12.3618ZM94.6489 25.4111C94.6489 24.8822 94.4292 24.4793 93.9897 24.2026C93.5584 23.9259 92.8382 23.6818 91.8291 23.4702C90.82 23.2586 89.9777 22.9901 89.3022 22.6646C87.8211 21.9484 87.0806 20.9108 87.0806 19.5518C87.0806 18.4124 87.5607 17.4603 88.521 16.6953C89.4813 15.9303 90.702 15.5479 92.1831 15.5479C93.7619 15.5479 95.0355 15.9385 96.0039 16.7197C96.9805 17.501 97.4688 18.5142 97.4688 19.7593H94.5024C94.5024 19.1896 94.2909 18.7176 93.8677 18.3433C93.4445 17.9608 92.883 17.7695 92.1831 17.7695C91.5321 17.7695 90.999 17.9201 90.584 18.2212C90.1771 18.5223 89.9736 18.9251 89.9736 19.4297C89.9736 19.8854 90.1649 20.2394 90.5474 20.4917C90.9299 20.744 91.703 21.0003 92.8667 21.2607C94.0304 21.513 94.9419 21.8182 95.6011 22.1763C96.2684 22.5262 96.7607 22.9494 97.0781 23.4458C97.4036 23.9422 97.5664 24.5444 97.5664 25.2524C97.5664 26.4406 97.0741 27.4049 96.0894 28.1455C95.1047 28.8779 93.8148 29.2441 92.2197 29.2441C91.1374 29.2441 90.173 29.0488 89.3267 28.6582C88.4803 28.2676 87.8211 27.7305 87.3491 27.0469C86.8771 26.3633 86.6411 25.6268 86.6411 24.8374H89.522C89.5627 25.5373 89.8271 26.0785 90.3154 26.4609C90.8037 26.8353 91.4507 27.0225 92.2563 27.0225C93.0376 27.0225 93.6317 26.876 94.0386 26.583C94.4455 26.2819 94.6489 25.8913 94.6489 25.4111ZM103.877 12.5815V15.792H106.209V17.9893H103.877V25.3623C103.877 25.8669 103.975 26.2331 104.17 26.4609C104.374 26.6807 104.732 26.7905 105.245 26.7905C105.586 26.7905 105.932 26.7498 106.282 26.6685V28.9634C105.607 29.1506 104.956 29.2441 104.329 29.2441C102.05 29.2441 100.911 27.9868 100.911 25.4722V17.9893H98.7383V15.792H100.911V12.5815H103.877ZM115.401 18.502C115.01 18.4368 114.607 18.4043 114.192 18.4043C112.833 18.4043 111.918 18.9251 111.446 19.9668V29H108.479V15.792H111.312L111.385 17.269C112.101 16.1216 113.094 15.5479 114.363 15.5479C114.786 15.5479 115.136 15.6048 115.413 15.7188L115.401 18.502ZM124.8 29C124.67 28.7477 124.556 28.3368 124.458 27.7671C123.514 28.7518 122.359 29.2441 120.992 29.2441C119.665 29.2441 118.583 28.8657 117.745 28.1089C116.906 27.3521 116.487 26.4162 116.487 25.3013C116.487 23.8934 117.008 22.8151 118.05 22.0664C119.1 21.3096 120.597 20.9312 122.542 20.9312H124.361V20.0645C124.361 19.3809 124.17 18.8356 123.787 18.4287C123.405 18.0137 122.823 17.8062 122.042 17.8062C121.366 17.8062 120.813 17.9771 120.381 18.3188C119.95 18.6525 119.734 19.0798 119.734 19.6006H116.768C116.768 18.8763 117.008 18.2008 117.488 17.5742C117.968 16.9395 118.619 16.443 119.441 16.085C120.271 15.7269 121.195 15.5479 122.212 15.5479C123.759 15.5479 124.992 15.9385 125.911 16.7197C126.831 17.4928 127.303 18.5833 127.327 19.9912V25.9482C127.327 27.1364 127.494 28.0845 127.828 28.7925V29H124.8ZM121.541 26.8638C122.127 26.8638 122.676 26.7214 123.189 26.4365C123.71 26.1517 124.1 25.7692 124.361 25.2891V22.7988H122.762C121.663 22.7988 120.837 22.9901 120.284 23.3726C119.73 23.755 119.454 24.2962 119.454 24.9961C119.454 25.5658 119.641 26.0215 120.015 26.3633C120.398 26.6969 120.906 26.8638 121.541 26.8638ZM137.349 18.502C136.958 18.4368 136.556 18.4043 136.141 18.4043C134.782 18.4043 133.866 18.9251 133.394 19.9668V29H130.428V15.792H133.26L133.333 17.269C134.049 16.1216 135.042 15.5479 136.312 15.5479C136.735 15.5479 137.085 15.6048 137.361 15.7188L137.349 18.502ZM142.012 15.792L142.098 17.1714C143.025 16.089 144.295 15.5479 145.906 15.5479C147.672 15.5479 148.881 16.2233 149.532 17.5742C150.492 16.2233 151.843 15.5479 153.584 15.5479C155.041 15.5479 156.124 15.9507 156.832 16.7563C157.548 17.562 157.914 18.7502 157.93 20.3208V29H154.964V20.4062C154.964 19.568 154.781 18.9536 154.415 18.563C154.048 18.1724 153.442 17.9771 152.596 17.9771C151.92 17.9771 151.367 18.1602 150.936 18.5264C150.512 18.8844 150.215 19.3564 150.044 19.9424L150.057 29H147.09V20.3086C147.05 18.7542 146.256 17.9771 144.71 17.9771C143.522 17.9771 142.68 18.4613 142.183 19.4297V29H139.217V15.792H142.012ZM166.792 29.2441C164.913 29.2441 163.387 28.6541 162.215 27.4741C161.051 26.286 160.469 24.7072 160.469 22.7378V22.3716C160.469 21.0532 160.722 19.8773 161.226 18.8438C161.739 17.8021 162.455 16.9924 163.375 16.4146C164.294 15.8368 165.319 15.5479 166.451 15.5479C168.249 15.5479 169.637 16.1216 170.613 17.269C171.598 18.4165 172.09 20.04 172.09 22.1396V23.3359H163.46C163.549 24.4264 163.912 25.2891 164.546 25.9238C165.189 26.5586 165.995 26.876 166.963 26.876C168.322 26.876 169.429 26.3267 170.284 25.228L171.883 26.7539C171.354 27.5433 170.646 28.1577 169.759 28.5972C168.88 29.0285 167.891 29.2441 166.792 29.2441ZM166.438 17.9282C165.625 17.9282 164.965 18.2131 164.461 18.7827C163.965 19.3524 163.647 20.1458 163.509 21.1631H169.161V20.9434C169.096 19.9505 168.831 19.2018 168.367 18.6973C167.903 18.1846 167.26 17.9282 166.438 17.9282Z" fill="white"/>
</svg>
